HIERARCHY
ROOT Hips
{
	OFFSET 0.000000 0.000000 0.000000
	CHANNELS 6 Xposition Yposition Zposition Zrotation Yrotation Xrotation 
	JOINT LHipJoint
	{
		OFFSET 0.000000 0.000000 0.000000
		CHANNELS 3 Zrotation Yrotation Xrotation
		JOINT LeftUpLeg
		{
			OFFSET 1.363060 -1.794630 0.839290
			CHANNELS 3 Zrotation Yrotation Xrotation
			JOINT LeftLeg
			{
				OFFSET 2.448110 -6.726130 0.000000
				CHANNELS 3 Zrotation Yrotation Xrotation
				JOINT LeftFoot
				{
					OFFSET 2.562200 -7.039590 0.000000
					CHANNELS 3 Zrotation Yrotation Xrotation
					JOINT LeftToeBase
					{
						OFFSET 0.157640 -0.433110 2.322550
						CHANNELS 3 Zrotation Yrotation Xrotation
						End Site
						{
							OFFSET 0.000000 0.000000 0.000000
						}
					}
				}
			}
		}
	}
	JOINT RHipJoint
	{
		OFFSET 0.000000 0.000000 0.000000
		CHANNELS 3 Zrotation Yrotation Xrotation
		JOINT RightUpLeg
		{
			OFFSET -1.305520 -1.794630 0.839290
			CHANNELS 3 Zrotation Yrotation Xrotation
			JOINT RightLeg
			{
				OFFSET -2.542530 -6.985550 0.000000
				CHANNELS 3 Zrotation Yrotation Xrotation
				JOINT RightFoot
				{
					OFFSET -2.568260 -7.056230 0.000000
					CHANNELS 3 Zrotation Yrotation Xrotation
					JOINT RightToeBase
					{
						OFFSET -0.164730 -0.452590 2.363150
						CHANNELS 3 Zrotation Yrotation Xrotation
						End Site
						{
							OFFSET 0.000000 0.000000 0.000000
						}
					}
				}
			}
		}
	}
	JOINT LowerBack
	{
		OFFSET 0.000000 0.000000 0.000000
		CHANNELS 3 Zrotation Yrotation Xrotation
		JOINT Spine
		{
			OFFSET 0.028270 2.035590 -0.193380
			CHANNELS 3 Zrotation Yrotation Xrotation
			JOINT Spine1
			{
				OFFSET 0.056720 2.048850 -0.042750
				CHANNELS 3 Zrotation Yrotation Xrotation
				JOINT Neck
				{
					OFFSET 0.000000 0.000000 0.000000
					CHANNELS 3 Zrotation Yrotation Xrotation
					JOINT Neck1
					{
						OFFSET -0.054170 1.746240 0.172020
						CHANNELS 3 Zrotation Yrotation Xrotation
						JOINT Head
						{
							OFFSET 0.104070 1.761360 -0.123970
							CHANNELS 3 Zrotation Yrotation Xrotation
							End Site
							{
								OFFSET 0.000000 0.000000 0.000000
							}
						}
					}
				}
				JOINT LeftShoulder
				{
					OFFSET 0.000000 0.000000 0.000000
					CHANNELS 3 Zrotation Yrotation Xrotation
					JOINT LeftArm
					{
						OFFSET 3.362410 1.200890 -0.311210
						CHANNELS 3 Zrotation Yrotation Xrotation
						JOINT LeftForeArm
						{
							OFFSET 4.983000 -0.000000 -0.000000
							CHANNELS 3 Zrotation Yrotation Xrotation
							JOINT LeftHand
							{
								OFFSET 3.483560 -0.000000 -0.000000
								CHANNELS 3 Zrotation Yrotation Xrotation
								JOINT LeftFingerBase
								{
									OFFSET 0.000000 0.000000 0.000000
									CHANNELS 3 Zrotation Yrotation Xrotation
									JOINT LeftHandIndex1
									{
										OFFSET 0.715260 -0.000000 -0.000000
										CHANNELS 3 Zrotation Yrotation Xrotation
										End Site
										{
											OFFSET 0.000000 0.000000 0.000000
										}
									}
								}
								JOINT LThumb
								{
									OFFSET 0.000000 0.000000 0.000000
									CHANNELS 3 Zrotation Yrotation Xrotation
									End Site
									{
										OFFSET 0.000000 0.000000 0.000000
									}
								}
							}
						}
					}
				}
				JOINT RightShoulder
				{
					OFFSET 0.000000 0.000000 0.000000
					CHANNELS 3 Zrotation Yrotation Xrotation
					JOINT RightArm
					{
						OFFSET -3.136600 1.374050 -0.404650
						CHANNELS 3 Zrotation Yrotation Xrotation
						JOINT RightForeArm
						{
							OFFSET -5.241900 -0.000000 -0.000000
							CHANNELS 3 Zrotation Yrotation Xrotation
							JOINT RightHand
							{
								OFFSET -3.444170 -0.000000 -0.000000
								CHANNELS 3 Zrotation Yrotation Xrotation
								JOINT RightFingerBase
								{
									OFFSET 0.000000 0.000000 0.000000
									CHANNELS 3 Zrotation Yrotation Xrotation
									JOINT RightHandIndex1
									{
										OFFSET -0.622530 -0.000000 -0.000000
										CHANNELS 3 Zrotation Yrotation Xrotation
										End Site
										{
											OFFSET 0.000000 0.000000 0.000000
										}
									}
								}
								JOINT RThumb
								{
									OFFSET 0.000000 0.000000 0.000000
									CHANNELS 3 Zrotation Yrotation Xrotation
									End Site
									{
										OFFSET 0.000000 0.000000 0.000000
									}
								}
							}
						}
					}
				}
			}
		}
	}
}
MOTION
Frames: 7
Frame Time: 0.016667
-1.727039 16.838112 24.164807 7.943774 -0.411941 5.188892 -0.586638 -21.661213 10.225412 -7.522759 -59.085783 8.019576 19.452783 30.507924 -43.786256 -5.314049 -9.654706 38.777271 0.000000 0.000000 0.000000 6.743780 5.935351 -2.858766 -1.444283 -7.612214 13.336737 1.941744 -22.491260 30.730247 13.870826 -40.519134 27.225968 0.000000 0.000000 0.000000 4.776135 13.207768 1.397052 -19.327001 14.117971 23.619893 -3.738617 4.089708 -56.311523 19.287101 -6.106541 17.244300 -8.498880 -1.178221 19.993700 0.000000 0.000000 0.000000 1.555698 -28.614765 29.650169 -72.571336 5.671198 24.174504 -23.806868 -73.025609 0.650459 0.250729 -14.367946 0.318675 0.291471 -14.379120 0.000000 0.000000 0.000000 0.000000 0.000000 0.000000 0.000000 -15.151628 -74.057079 -80.315717 142.396685 7.533859 -129.044872 -75.882784 -73.750585 -12.440829 -7.537406 54.300276 -3.129461 -2.597800 57.179647 -0.000000 0.000000 0.000000 0.000000 0.000000 0.000000 0.000000 
-1.741408 16.864958 24.353212 8.565214 -1.211463 5.455551 0.192806 -22.007591 9.697685 -11.227233 -60.058077 9.759191 18.079427 33.561889 -43.789140 -2.489458 -13.465712 33.107537 0.000000 0.000000 0.000000 6.708727 5.522250 -2.172671 -2.127150 -7.207108 12.633874 1.660720 -22.097370 30.814313 13.791326 -41.689163 28.341329 0.000000 0.000000 0.000000 4.753937 13.034736 1.177709 -20.021029 13.974377 24.386663 -4.090841 3.916578 -56.940260 19.173685 -5.910299 17.079799 -8.350456 -1.185271 19.899000 0.000000 0.000000 0.000000 2.499683 -27.982843 29.489027 -72.317592 5.799918 24.320737 -23.942382 -73.236063 0.664925 0.214299 -14.419298 0.326054 0.252859 -14.430731 0.000000 0.000000 0.000000 0.000000 0.000000 0.000000 0.000000 -16.346780 -75.401011 -80.629092 144.086468 3.753299 -121.109349 -76.486653 -72.347472 -12.129756 -7.665737 55.677953 -2.779420 -2.211454 58.528223 -0.000000 0.000000 0.000000 0.000000 0.000000 0.000000 0.000000 
-1.753183 16.893094 24.537934 9.397217 -2.710840 6.201643 0.937608 -22.150466 8.840022 -15.101893 -60.981699 11.294543 16.602009 36.965663 -43.514855 1.863580 -17.722837 26.323966 0.000000 0.000000 0.000000 6.484355 5.482218 -1.842193 -2.956057 -6.648116 11.856783 1.289737 -21.620418 30.989349 13.661467 -42.777197 29.414674 0.000000 0.000000 0.000000 5.371275 11.582630 1.946787 -21.027405 12.556565 25.004161 -6.400878 2.147647 -59.555520 19.034100 -5.326450 16.596044 -7.787778 -1.247270 19.799639 0.000000 0.000000 0.000000 6.443651 -24.434670 29.200871 -71.048558 7.042048 25.233013 -24.364831 -74.197442 0.736174 0.054222 -14.566436 0.362577 0.080876 -14.578988 0.000000 0.000000 0.000000 0.000000 0.000000 0.000000 0.000000 -22.676340 -79.364261 -82.245434 138.936010 -5.955335 -98.591519 -85.147829 -86.564721 -12.702103 -8.536373 61.050556 -2.269642 -1.688142 63.885150 -0.000000 0.000000 0.000000 0.000000 0.000000 0.000000 0.000000 
-1.762016 16.922063 24.718322 10.152145 -4.372257 6.828291 1.735216 -22.118520 7.953083 -19.130718 -61.818009 12.879883 14.843224 40.658205 -43.083910 7.675986 -22.182797 18.479134 0.000000 0.000000 0.000000 6.299142 5.482996 -1.457361 -3.799201 -6.074094 11.097740 0.887900 -21.090819 31.167271 13.485147 -43.796626 30.456801 0.000000 0.000000 0.000000 5.790705 9.795840 2.592727 -21.287751 10.674778 24.826709 -9.253600 0.278965 -59.859310 18.894381 -4.749396 15.536941 -7.266411 -1.290079 19.437875 0.000000 0.000000 0.000000 10.876272 -19.983492 28.238957 -69.173299 8.072455 25.700787 -24.753454 -75.424071 0.788310 -0.091673 -14.704049 0.389319 -0.073901 -14.717482 0.000000 0.000000 0.000000 0.000000 0.000000 0.000000 0.000000 -29.861416 -79.566377 -83.381002 129.428260 -13.144727 -76.063711 92.341365 -76.488652 165.917242 -8.256580 64.207410 -2.648783 -1.295217 66.861594 0.000000 0.000000 0.000000 0.000000 0.000000 0.000000 0.000000 
-1.767303 16.951437 24.894338 10.661022 -5.935445 7.288820 2.655908 -21.898793 7.003311 -23.251548 -62.525636 14.545358 12.687980 44.660986 -42.667874 14.736684 -26.529631 9.614411 0.000000 0.000000 0.000000 6.268888 5.419438 -0.987628 -4.560433 -5.541373 10.332492 0.495254 -20.537638 31.313960 13.257420 -44.751688 31.468906 0.000000 0.000000 0.000000 5.616544 7.997716 3.121863 -20.744892 8.647333 23.995121 -11.926958 -1.309113 -57.572505 19.083153 -4.339214 13.276248 -6.805368 -1.305065 18.654571 0.000000 0.000000 0.000000 15.447296 -15.013999 26.397797 -67.453841 8.462438 25.718122 -25.088991 -76.751487 0.819341 -0.220609 -14.793687 0.405294 -0.208611 -14.807721 0.000000 0.000000 0.000000 0.000000 0.000000 0.000000 0.000000 -37.280879 -75.055970 -83.796549 117.850396 -15.270238 -58.674399 93.325064 -65.893539 164.104442 -6.603276 63.960187 -4.025164 -1.127852 66.317491 0.000000 0.000000 0.000000 0.000000 0.000000 0.000000 0.000000 
-1.769569 16.980836 25.065420 10.741865 -7.643968 7.899832 3.782124 -21.313025 5.769790 -27.333059 -63.013532 16.087187 10.121854 49.053514 -42.441601 22.730483 -30.397032 -0.242903 0.000000 0.000000 0.000000 6.536552 5.517355 -0.690133 -5.200573 -4.980894 9.483820 0.080436 -19.943158 31.475366 12.993315 -45.626774 32.445857 0.000000 0.000000 0.000000 4.522765 5.531312 4.330487 -19.261910 5.875360 22.825360 -13.993175 -3.129536 -53.230818 19.652171 -4.087147 7.830974 -6.257324 -1.290334 17.027045 0.000000 0.000000 0.000000 21.609954 -6.836454 22.827113 -66.314022 8.389045 25.857782 -25.505308 -78.622784 0.869256 -0.397074 -14.910412 0.431025 -0.394345 -14.925256 0.000000 0.000000 0.000000 0.000000 0.000000 0.000000 0.000000 -46.607908 -64.607624 -82.344137 107.713773 -10.741680 -43.224942 100.332856 -73.766434 161.305515 -2.698148 60.597008 -7.290126 -1.348265 62.596236 -0.000000 0.000000 0.000000 0.000000 0.000000 0.000000 0.000000 
-1.769146 17.009987 25.231713 10.681252 -9.184217 8.890106 4.881480 -20.457131 4.115487 -31.390482 -63.263494 17.391656 7.093462 53.782793 -42.545902 31.152772 -33.612848 -10.956449 0.000000 0.000000 0.000000 6.894422 5.665774 -0.680061 -5.714055 -4.433757 8.483212 -0.275352 -19.358458 31.630763 12.691799 -46.417669 33.374247 0.000000 0.000000 0.000000 3.235600 3.000676 6.630337 -18.239094 3.283509 23.306776 -13.153448 -4.861004 -52.802085 19.421937 -3.967344 0.455379 -5.926350 -1.242029 15.323339 0.000000 0.000000 0.000000 26.655149 3.385733 19.298657 -66.473848 8.923115 27.311269 -26.191580 -80.329849 0.988137 -0.718775 -15.004470 0.492342 -0.738119 -15.020883 0.000000 0.000000 0.000000 0.000000 0.000000 0.000000 0.000000 -51.951275 -56.938936 -76.006893 111.327868 0.738436 -28.681072 -58.592161 -74.329423 -21.755739 3.322231 59.680424 -12.124303 -1.390812 61.615709 -0.000000 0.000000 0.000000 0.000000 0.000000 0.000000 0.000000 
